<svg width="100" height="100" viewBox="0 0 100 100" fill="none" xmlns="http://www.w3.org/2000/svg">
<rect x="17" y="80" width="3" height="5" fill="#4D322A"/>
<rect x="17" y="75" width="3" height="5" fill="#4D322A"/>
<rect x="17" y="65" width="3" height="5" fill="#4D322A"/>
<rect x="17" y="68" width="3" height="5" fill="#4D322A"/>
<rect x="17" y="60" width="3" height="5" fill="#4D322A"/>
<rect x="17" y="55" width="3" height="5" fill="#4D322A"/>
<rect x="17" y="50" width="3" height="5" fill="#4D322A"/>
<rect x="17" y="45" width="3" height="5" fill="#4D322A"/>
<rect x="17" y="40" width="3" height="5" fill="#4D322A"/>
<rect x="17" y="35" width="3" height="5" fill="#4D322A"/>
<rect x="17" y="25" width="3" height="5" fill="#4D322A"/>
<rect x="17" y="30" width="3" height="5" fill="#4D322A"/>
<rect x="17" y="20" width="3" height="5" fill="#4D322A"/>
<rect x="17" y="15" width="3" height="5" fill="#4D322A"/>
<rect x="20" y="85" width="5" height="5" fill="#4D322A"/>
<rect x="20" y="80" width="5" height="5" fill="#4D322A"/>
<rect x="20" y="78" width="5" height="5" fill="black"/>
<rect x="20" y="70" width="5" height="5" fill="#4D322A"/>
<rect x="20" y="73" width="5" height="5" fill="#4D322A"/>
<rect x="20" y="65" width="5" height="5" fill="#4D322A"/>
<rect x="20" y="60" width="5" height="5" fill="#4D322A"/>
<rect x="20" y="55" width="5" height="5" fill="#4D322A"/>
<rect x="20" y="50" width="5" height="5" fill="#4D322A"/>
<rect x="20" y="45" width="5" height="5" fill="#4D322A"/>
<rect x="20" y="40" width="5" height="5" fill="#4D322A"/>
<rect x="17" y="32" width="3" height="5" fill="black"/>
<rect x="20" y="30" width="5" height="5" fill="#4D322A"/>
<rect x="20" y="35" width="5" height="5" fill="#4D322A"/>
<rect x="20" y="25" width="5" height="5" fill="#4D322A"/>
<rect x="20" y="20" width="5" height="5" fill="#4D322A"/>
<rect x="17" y="20" width="2" height="5" fill="#996354"/>
<rect x="30" y="20" width="2" height="5" fill="#996354"/>
<rect x="17" y="32" width="2" height="5" fill="#666666"/>
<rect x="17" y="15" width="2" height="5" fill="#996354"/>
<rect x="20" y="15" width="5" height="5" fill="#4D322A"/>
<rect x="20" y="10" width="5" height="5" fill="#4D322A"/>
<rect x="25" y="85" width="5" height="5" fill="#4D322A"/>
<rect x="25" y="80" width="5" height="5" fill="black"/>
<rect x="25" y="75" width="5" height="5" fill="#4D322A"/>
<rect x="25" y="70" width="5" height="5" fill="#4D322A"/>
<rect x="25" y="65" width="5" height="5" fill="#4D322A"/>
<rect x="25" y="60" width="5" height="5" fill="#4D322A"/>
<rect x="25" y="55" width="5" height="5" fill="#4D322A"/>
<rect x="25" y="50" width="5" height="5" fill="#4D322A"/>
<rect x="25" y="45" width="5" height="5" fill="#4D322A"/>
<rect x="25" y="40" width="5" height="5" fill="black"/>
<rect x="25" y="35" width="5" height="5" fill="#4D322A"/>
<rect x="25" y="30" width="5" height="5" fill="#4D322A"/>
<rect x="25" y="25" width="5" height="5" fill="#4D322A"/>
<rect x="25" y="20" width="5" height="5" fill="#4D322A"/>
<rect x="60" y="18" width="5" height="2" fill="#4D322A"/>
<rect x="25" y="18" width="5" height="2" fill="#4D322A"/>
<rect x="25" y="7" width="5" height="3" fill="#4D322A"/>
<rect x="25" y="10" width="5" height="5" fill="#4D322A"/>
<rect x="25" y="90" width="5" height="3" fill="#4D322A"/>
<rect x="30" y="85" width="5" height="5" fill="#4D322A"/>
<rect x="30" y="80" width="5" height="5" fill="black"/>
<rect x="30" y="75" width="5" height="5" fill="#4D322A"/>
<rect x="30" y="70" width="5" height="5" fill="#4D322A"/>
<rect x="30" y="65" width="5" height="5" fill="#4D322A"/>
<rect x="30" y="60" width="5" height="5" fill="#4D322A"/>
<rect x="30" y="55" width="5" height="5" fill="#4D322A"/>
<rect x="30" y="50" width="5" height="5" fill="#4D322A"/>
<rect x="30" y="45" width="5" height="5" fill="#4D322A"/>
<rect x="30" y="40" width="5" height="5" fill="black"/>
<rect x="30" y="35" width="5" height="5" fill="#4D322A"/>
<rect x="30" y="30" width="5" height="5" fill="#4D322A"/>
<rect x="30" y="25" width="5" height="5" fill="#4D322A"/>
<rect x="30" y="20" width="5" height="5" fill="#4D322A"/>
<rect x="30" y="5" width="5" height="5" fill="#4D322A"/>
<rect x="30" y="90" width="5" height="5" fill="#4D322A"/>
<rect x="35" y="85" width="5" height="5" fill="#4D322A"/>
<rect x="35" y="80" width="5" height="5" fill="black"/>
<rect x="35" y="75" width="5" height="5" fill="#4D322A"/>
<rect x="35" y="70" width="5" height="5" fill="#4D322A"/>
<rect x="35" y="65" width="5" height="5" fill="#4D322A"/>
<rect x="35" y="60" width="5" height="5" fill="#4D322A"/>
<rect x="35" y="55" width="5" height="5" fill="#4D322A"/>
<rect x="35" y="50" width="5" height="5" fill="#4D322A"/>
<rect x="35" y="45" width="5" height="5" fill="#4D322A"/>
<rect x="35" y="40" width="5" height="5" fill="black"/>
<rect x="35" y="35" width="5" height="5" fill="#4D322A"/>
<rect x="35" y="30" width="5" height="5" fill="#4D322A"/>
<rect x="35" y="25" width="5" height="5" fill="#4D322A"/>
<rect x="35" y="20" width="5" height="5" fill="#4D322A"/>
<rect x="35" y="5" width="5" height="5" fill="#4D322A"/>
<rect x="35" y="90" width="5" height="5" fill="#4D322A"/>
<rect x="40" y="85" width="5" height="5" fill="#4D322A"/>
<rect x="40" y="80" width="5" height="5" fill="black"/>
<rect x="40" y="75" width="5" height="5" fill="#4D322A"/>
<rect x="40" y="70" width="5" height="5" fill="#4D322A"/>
<rect x="40" y="65" width="5" height="5" fill="#4D322A"/>
<rect x="40" y="60" width="5" height="5" fill="#4D322A"/>
<rect x="40" y="55" width="5" height="5" fill="#4D322A"/>
<rect x="40" y="50" width="5" height="5" fill="#4D322A"/>
<rect x="40" y="45" width="5" height="5" fill="#4D322A"/>
<rect x="40" y="40" width="5" height="5" fill="black"/>
<rect x="40" y="35" width="5" height="5" fill="#4D322A"/>
<rect x="40" y="30" width="5" height="5" fill="#4D322A"/>
<rect x="40" y="25" width="5" height="5" fill="#4D322A"/>
<rect x="40" y="20" width="5" height="5" fill="#4D322A"/>
<rect x="40" y="5" width="5" height="5" fill="#4D322A"/>
<rect x="40" y="90" width="5" height="5" fill="#4D322A"/>
<rect x="45" y="85" width="5" height="5" fill="#4D322A"/>
<rect x="45" y="80" width="5" height="5" fill="black"/>
<rect x="45" y="75" width="5" height="5" fill="#4D322A"/>
<rect x="45" y="70" width="5" height="5" fill="#4D322A"/>
<rect x="45" y="65" width="5" height="5" fill="#4D322A"/>
<rect x="45" y="60" width="5" height="5" fill="#4D322A"/>
<rect x="45" y="55" width="5" height="5" fill="#4D322A"/>
<rect x="45" y="50" width="5" height="5" fill="#4D322A"/>
<rect x="45" y="45" width="5" height="5" fill="#4D322A"/>
<rect x="45" y="40" width="5" height="5" fill="black"/>
<rect x="45" y="35" width="5" height="5" fill="#4D322A"/>
<rect x="45" y="30" width="5" height="5" fill="#4D322A"/>
<rect x="45" y="25" width="5" height="5" fill="#4D322A"/>
<rect x="45" y="20" width="5" height="5" fill="#4D322A"/>
<rect x="45" y="5" width="5" height="5" fill="#4D322A"/>
<rect x="45" y="90" width="5" height="5" fill="#4D322A"/>
<rect x="50" y="85" width="5" height="5" fill="#4D322A"/>
<rect x="50" y="80" width="5" height="5" fill="black"/>
<rect x="50" y="75" width="5" height="5" fill="#4D322A"/>
<rect x="50" y="70" width="5" height="5" fill="#4D322A"/>
<rect x="50" y="65" width="5" height="5" fill="#4D322A"/>
<rect x="50" y="60" width="5" height="5" fill="#4D322A"/>
<rect x="50" y="55" width="5" height="5" fill="#4D322A"/>
<rect x="50" y="50" width="5" height="5" fill="#4D322A"/>
<rect x="50" y="45" width="5" height="5" fill="#4D322A"/>
<rect x="50" y="40" width="5" height="5" fill="black"/>
<rect x="50" y="35" width="5" height="5" fill="#4D322A"/>
<rect x="50" y="30" width="5" height="5" fill="#4D322A"/>
<rect x="50" y="25" width="5" height="5" fill="#4D322A"/>
<rect x="50" y="20" width="5" height="5" fill="#4D322A"/>
<rect x="50" y="5" width="5" height="5" fill="#4D322A"/>
<rect x="50" y="90" width="5" height="5" fill="#4D322A"/>
<rect x="55" y="85" width="5" height="5" fill="#4D322A"/>
<rect x="55" y="80" width="5" height="5" fill="black"/>
<rect x="55" y="75" width="5" height="5" fill="#4D322A"/>
<rect x="55" y="70" width="5" height="5" fill="#4D322A"/>
<rect x="55" y="65" width="5" height="5" fill="#4D322A"/>
<rect x="55" y="60" width="5" height="5" fill="#4D322A"/>
<rect x="55" y="55" width="5" height="5" fill="#4D322A"/>
<rect x="55" y="50" width="5" height="5" fill="#4D322A"/>
<rect x="55" y="45" width="5" height="5" fill="#4D322A"/>
<rect x="55" y="40" width="5" height="5" fill="black"/>
<rect x="55" y="35" width="5" height="5" fill="#4D322A"/>
<rect x="55" y="30" width="5" height="5" fill="#4D322A"/>
<rect x="55" y="25" width="5" height="5" fill="#4D322A"/>
<rect x="55" y="20" width="5" height="5" fill="#4D322A"/>
<rect x="55" y="10" width="5" height="5" fill="black"/>
<rect x="55" y="5" width="5" height="5" fill="#4D322A"/>
<rect x="55" y="90" width="5" height="5" fill="#4D322A"/>
<rect x="60" y="85" width="5" height="5" fill="#4D322A"/>
<rect x="60" y="80" width="5" height="5" fill="black"/>
<rect x="60" y="75" width="5" height="5" fill="#4D322A"/>
<rect x="60" y="70" width="5" height="5" fill="#4D322A"/>
<rect x="60" y="65" width="5" height="5" fill="#4D322A"/>
<rect x="60" y="60" width="5" height="5" fill="#4D322A"/>
<rect x="60" y="55" width="5" height="5" fill="#4D322A"/>
<rect x="60" y="50" width="5" height="5" fill="#4D322A"/>
<rect x="60" y="45" width="5" height="5" fill="#4D322A"/>
<rect x="60" y="40" width="5" height="5" fill="black"/>
<rect x="60" y="35" width="5" height="5" fill="#4D322A"/>
<rect x="60" y="30" width="5" height="5" fill="#4D322A"/>
<rect x="60" y="25" width="5" height="5" fill="#4D322A"/>
<rect x="70" y="25" width="5" height="5" fill="#4D322A"/>
<rect x="60" y="20" width="5" height="5" fill="#4D322A"/>
<rect x="70" y="20" width="5" height="5" fill="#4D322A"/>
<rect x="60" y="7" width="5" height="3" fill="#4D322A"/>
<rect x="60" y="10" width="5" height="5" fill="#4D322A"/>
<rect x="60" y="90" width="5" height="3" fill="#4D322A"/>
<rect x="65" y="85" width="5" height="5" fill="#33211C"/>
<rect x="65" y="80" width="5" height="5" fill="#4D322A"/>
<rect x="68" y="80" width="5" height="5" fill="#33211C"/>
<rect x="65" y="70" width="5" height="5" fill="#4D322A"/>
<rect x="65" y="73" width="5" height="5" fill="#4D322A"/>
<rect x="65" y="65" width="5" height="5" fill="#4D322A"/>
<rect x="65" y="60" width="5" height="5" fill="#4D322A"/>
<rect x="65" y="55" width="5" height="5" fill="#4D322A"/>
<rect x="65" y="50" width="5" height="5" fill="#4D322A"/>
<rect x="65" y="45" width="5" height="5" fill="#4D322A"/>
<rect x="65" y="40" width="5" height="5" fill="#4D322A"/>
<rect x="65" y="30" width="5" height="5" fill="#4D322A"/>
<rect x="65" y="35" width="5" height="5" fill="#4D322A"/>
<rect x="65" y="25" width="5" height="5" fill="#4D322A"/>
<rect x="75" y="25" width="5" height="5" fill="#4D322A"/>
<rect x="75" y="35" width="5" height="5" fill="#4D322A"/>
<rect x="75" y="45" width="5" height="5" fill="#4D322A"/>
<rect x="75" y="55" width="5" height="5" fill="#4D322A"/>
<rect x="75" y="65" width="5" height="5" fill="#4D322A"/>
<rect x="65" y="20" width="5" height="5" fill="#4D322A"/>
<rect x="75" y="20" width="5" height="5" fill="#4D322A"/>
<rect x="75" y="30" width="5" height="5" fill="#4D322A"/>
<rect x="80" y="30" width="2" height="5" fill="#4D322A"/>
<rect x="80" y="40" width="2" height="5" fill="#4D322A"/>
<rect x="80" y="50" width="2" height="5" fill="#4D322A"/>
<rect x="80" y="60" width="2" height="5" fill="#4D322A"/>
<rect x="80" y="25" width="2" height="5" fill="#4D322A"/>
<rect x="80" y="35" width="2" height="5" fill="#4D322A"/>
<rect x="80" y="45" width="2" height="5" fill="#4D322A"/>
<rect x="80" y="55" width="2" height="5" fill="#4D322A"/>
<rect x="75" y="40" width="5" height="5" fill="#4D322A"/>
<rect x="75" y="50" width="5" height="5" fill="#4D322A"/>
<rect x="75" y="60" width="5" height="5" fill="#4D322A"/>
<rect x="68" y="65" width="5" height="5" fill="#33211C"/>
<rect x="73" y="65" width="2" height="5" fill="#4D322A"/>
<rect x="68" y="60" width="5" height="5" fill="#33211C"/>
<rect x="68" y="55" width="5" height="5" fill="#33211C"/>
<rect x="68" y="50" width="5" height="5" fill="#33211C"/>
<rect x="68" y="45" width="5" height="5" fill="#33211C"/>
<rect x="68" y="40" width="5" height="5" fill="#33211C"/>
<rect x="70" y="15" width="3" height="5" fill="#4D322A"/>
<rect x="68" y="35" width="5" height="5" fill="#33211C"/>
<rect x="68" y="30" width="5" height="5" fill="#33211C"/>
<rect x="70" y="32" width="3" height="5" fill="black"/>
<rect x="65" y="15" width="5" height="5" fill="#4D322A"/>
<rect x="65" y="10" width="5" height="5" fill="#4D322A"/>
<rect x="20" y="37" width="5" height="5" fill="black"/>
<rect x="65" y="37" width="5" height="5" fill="black"/>
<rect x="17" y="73" width="3" height="5" fill="black"/>
<rect x="17" y="73" width="2" height="5" fill="#666666"/>
<rect x="20" y="12" width="2" height="3" fill="#996354"/>
<rect x="68" y="70" width="5" height="5" fill="#33211C"/>
<rect x="68" y="75" width="5" height="5" fill="#33211C"/>
<rect x="65" y="78" width="5" height="5" fill="black"/>
<rect x="70" y="73" width="3" height="5" fill="black"/>
<rect x="25" y="15" width="5" height="3" fill="#33211C"/>
<rect x="25" y="12" width="5" height="3" fill="#33211C"/>
<rect x="27" y="9" width="5" height="3" fill="#33211C"/>
<rect x="22" y="12" width="5" height="5" fill="#33211C"/>
<rect x="30" y="15" width="5" height="5" fill="#33211C"/>
<rect x="30" y="10" width="5" height="5" fill="#33211C"/>
<rect x="30" y="7" width="5" height="3" fill="#33211C"/>
<rect x="35" y="15" width="5" height="5" fill="#33211C"/>
<rect x="35" y="10" width="5" height="5" fill="#33211C"/>
<rect x="35" y="7" width="5" height="3" fill="#33211C"/>
<rect x="40" y="15" width="5" height="5" fill="#33211C"/>
<rect x="40" y="10" width="5" height="5" fill="#33211C"/>
<rect x="40" y="7" width="5" height="3" fill="#33211C"/>
<rect x="45" y="15" width="5" height="5" fill="#33211C"/>
<rect x="45" y="10" width="5" height="5" fill="#33211C"/>
<rect x="45" y="7" width="5" height="3" fill="#33211C"/>
<rect x="50" y="15" width="5" height="5" fill="#33211C"/>
<rect x="50" y="10" width="5" height="5" fill="#33211C"/>
<rect x="50" y="7" width="5" height="3" fill="#33211C"/>
<rect x="55" y="15" width="5" height="5" fill="#33211C"/>
<rect x="60" y="15" width="5" height="3" fill="#33211C"/>
<rect x="55" y="10" width="5" height="5" fill="#33211C"/>
<rect x="55" y="7" width="5" height="3" fill="#33211C"/>
<rect x="60" y="9" width="3" height="6" fill="#33211C"/>
<rect x="63" y="12" width="5" height="5" fill="#33211C"/>
</svg>
