<svg width="53" height="57" viewBox="0 0 53 57" fill="none" xmlns="http://www.w3.org/2000/svg">
<rect x="22" y="28" width="5" height="5" fill="black"/>
<rect x="22" y="33" width="5" height="5" fill="black"/>
<rect x="22" y="38" width="5" height="5" fill="black"/>
<rect x="22" y="43" width="5" height="5" fill="black"/>
<rect x="17" y="43" width="5" height="5" fill="black"/>
<rect x="12" y="43" width="5" height="5" fill="black"/>
<rect x="7" y="43" width="5" height="5" fill="black"/>
<rect x="2" y="43" width="5" height="5" fill="black"/>
<rect x="2" y="48" width="5" height="5" fill="black"/>
<rect x="7" y="48" width="5" height="5" fill="black"/>
<rect x="7" y="53" width="5" height="2" fill="black"/>
<rect x="12" y="53" width="5" height="2" fill="black"/>
<rect x="22" y="48" width="2" height="2" fill="black"/>
<rect x="24" y="48" width="2" height="2" fill="#B4B4B4"/>
<rect x="51" y="18" width="2" height="2" fill="#B4B4B4"/>
<rect x="22" y="50" width="2" height="2" fill="#B4B4B4"/>
<rect y="50" width="2" height="2" fill="#B4B4B4"/>
<rect x="17" y="53" width="5" height="2" fill="#B4B4B4"/>
<rect x="47" y="16" width="4" height="2" fill="#B4B4B4"/>
<rect x="2" y="53" width="5" height="2" fill="#B4B4B4"/>
<rect x="7" y="55" width="10" height="2" fill="#B4B4B4"/>
<rect x="29" y="13" width="18" height="2" fill="#B4B4B4"/>
<rect x="12" y="48" width="5" height="5" fill="black"/>
<rect x="17" y="48" width="5" height="5" fill="black"/>
<rect x="7" y="38" width="5" height="5" fill="black"/>
<rect x="7" y="36" width="5" height="2" fill="black"/>
<rect x="7" y="39" width="5" height="2" fill="white"/>
<rect x="12" y="36" width="5" height="2" fill="black"/>
<rect x="2" y="38" width="5" height="5" fill="black"/>
<rect y="42" width="2" height="8" fill="black"/>
<rect x="12" y="38" width="5" height="5" fill="black"/>
<rect x="17" y="38" width="5" height="5" fill="black"/>
<rect x="22" y="23" width="5" height="5" fill="black"/>
<rect x="22" y="18" width="5" height="5" fill="black"/>
<rect x="22" y="13" width="5" height="5" fill="black"/>
<rect x="27" y="13" width="2" height="35" fill="#B4B4B4"/>
<rect x="22" y="8" width="5" height="5" fill="black"/>
<rect x="22" width="2" height="3" fill="black"/>
<rect x="22" y="3" width="5" height="5" fill="black"/>
<rect x="27" y="3" width="5" height="5" fill="black"/>
<rect x="27" y="8" width="5" height="5" fill="black"/>
<rect x="32" y="8" width="5" height="5" fill="black"/>
<rect x="32" y="5" width="5" height="3" fill="black"/>
<rect x="37" y="8" width="5" height="5" fill="black"/>
<rect x="37" y="5" width="5" height="3" fill="black"/>
<rect x="42" y="8" width="5" height="5" fill="black"/>
<rect x="47" y="11" width="2" height="5" fill="black"/>
<rect x="49" y="14" width="2" height="2" fill="black"/>
<rect x="51" y="16" width="2" height="2" fill="black"/>
<rect x="5" y="41" width="2" height="2" fill="white"/>
</svg>
