<svg width="65" height="62" viewBox="0 0 65 62" fill="none" xmlns="http://www.w3.org/2000/svg">
<rect x="35" y="47" width="5" height="5" fill="#8D0000"/>
<rect x="40" y="42" width="5" height="5" fill="#8D0000"/>
<rect x="45" y="37" width="5" height="5" fill="#8D0000"/>
<rect x="50" y="32" width="5" height="5" fill="#8D0000"/>
<rect x="50" y="5" width="5" height="5" fill="#8D0000"/>
<rect x="55" y="10" width="5" height="22" fill="#8D0000"/>
<path fill-rule="evenodd" clip-rule="evenodd" d="M40 5H45H50V10H55V32H50V37H45V42H40V47H35V52H30H25V47H20V42H15V36H10V32H5V10H10V5H15H20H25V10H30V15H35V10H40V5Z" fill="#FF0000"/>
<rect x="30" y="52" width="5" height="5" fill="#8D0000"/>
<rect x="30" y="57" width="5" height="5" fill="black"/>
<rect x="35" y="52" width="5" height="5" fill="black"/>
<rect x="40" y="47" width="5" height="5" fill="black"/>
<rect x="45" y="42" width="5" height="5" fill="black"/>
<rect x="50" y="37" width="5" height="5" fill="black"/>
<rect x="55" y="32" width="5" height="5" fill="black"/>
<rect x="60" y="11" width="5" height="21" fill="black"/>
<rect x="55" y="5" width="5" height="5" fill="black"/>
<rect x="40" width="15" height="5" fill="black"/>
<rect x="35" y="5" width="5" height="5" fill="black"/>
<rect x="30" y="10" width="5" height="5" fill="black"/>
<rect x="25" y="5" width="5" height="5" fill="black"/>
<rect x="10" width="15" height="5" fill="black"/>
<rect x="5" y="5" width="5" height="5" fill="black"/>
<rect y="11" width="5" height="21" fill="black"/>
<rect x="5" y="32" width="5" height="5" fill="black"/>
<rect x="10" y="36" width="5" height="5" fill="black"/>
<rect x="15" y="42" width="5" height="5" fill="black"/>
<rect x="20" y="47" width="5" height="5" fill="black"/>
<rect x="25" y="52" width="5" height="5" fill="black"/>
<rect x="10" y="12" width="5" height="5" fill="white"/>
<rect x="15" y="12" width="5" height="5" fill="white"/>
<rect x="10" y="17" width="5" height="5" fill="white"/>
<rect x="10" y="25" width="5" height="5" fill="white"/>
</svg>
